<svg width="432" height="432" viewBox="0 0 432 432" fill="none" xmlns="http://www.w3.org/2000/svg">
<path d="M61.7143 293.143V277.714H30.8571V293.143C30.8571 321.786 42.2357 349.256 62.4896 369.51C82.7435 389.764 110.214 401.143 138.857 401.143H185.143V370.286H138.857C118.398 370.286 98.776 362.158 84.3089 347.691C69.8418 333.224 61.7143 313.602 61.7143 293.143ZM339.429 138.857V154.286H370.286V138.857C370.286 110.214 358.907 82.7436 338.653 62.4896C318.399 42.2357 290.929 30.8572 262.286 30.8572H216V61.7143H262.286C272.416 61.7143 282.448 63.7097 291.807 67.5865C301.166 71.4633 309.671 77.1456 316.834 84.3089C323.997 91.4723 329.68 99.9765 333.556 109.336C337.433 118.695 339.429 128.727 339.429 138.857ZM138.857 138.857H46.2857C34.01 138.857 22.237 143.734 13.5568 152.414C4.87652 161.094 0 172.867 0 185.143V216H30.8571V185.143C30.8571 181.051 32.4827 177.127 35.3761 174.233C38.2695 171.34 42.1938 169.714 46.2857 169.714H138.857C142.949 169.714 146.873 171.34 149.767 174.233C152.66 177.127 154.286 181.051 154.286 185.143V216H185.143V185.143C185.143 172.867 180.266 161.094 171.586 152.414C162.906 143.734 151.133 138.857 138.857 138.857ZM92.5714 123.429C104.777 123.429 116.709 119.809 126.858 113.028C137.007 106.247 144.917 96.6082 149.588 85.3313C154.259 74.0545 155.481 61.6458 153.1 49.6745C150.719 37.7031 144.841 26.7066 136.21 18.0757C127.579 9.44482 116.583 3.56711 104.611 1.18585C92.6399 -1.19541 80.2312 0.0267396 68.9544 4.69775C57.6776 9.36876 48.0391 17.2788 41.2579 27.4277C34.4766 37.5766 30.8571 49.5084 30.8571 61.7143C30.8571 78.082 37.3592 93.7792 48.9328 105.353C60.5065 116.927 76.2038 123.429 92.5714 123.429ZM92.5714 30.8572C98.6744 30.8572 104.64 32.6669 109.715 36.0575C114.789 39.4482 118.744 44.2674 121.08 49.9058C123.415 55.5442 124.026 61.7485 122.836 67.7342C121.645 73.7199 118.706 79.2182 114.391 83.5336C110.075 87.8491 104.577 90.7879 98.5914 91.9785C92.6057 93.1692 86.4013 92.5581 80.7629 90.2226C75.1245 87.8871 70.3053 83.932 66.9147 78.8576C63.524 73.7832 61.7143 67.8173 61.7143 61.7143C61.7143 53.5305 64.9653 45.6818 70.7521 39.895C76.539 34.1082 84.3876 30.8572 92.5714 30.8572ZM385.714 354.857H293.143C280.867 354.857 269.094 359.734 260.414 368.414C251.734 377.094 246.857 388.867 246.857 401.143V432H277.714V401.143C277.714 397.051 279.34 393.127 282.233 390.233C285.127 387.34 289.051 385.714 293.143 385.714H385.714C389.806 385.714 393.731 387.34 396.624 390.233C399.517 393.127 401.143 397.051 401.143 401.143V432H432V401.143C432 388.867 427.123 377.094 418.443 368.414C409.763 359.734 397.99 354.857 385.714 354.857ZM277.714 277.714C277.714 289.92 281.334 301.852 288.115 312.001C294.896 322.15 304.535 330.06 315.812 334.731C327.088 339.402 339.497 340.624 351.468 338.243C363.44 335.862 374.436 329.984 383.067 321.353C391.698 312.722 397.576 301.726 399.957 289.754C402.338 277.783 401.116 265.374 396.445 254.097C391.774 242.82 383.864 233.182 373.715 226.401C363.566 219.62 351.635 216 339.429 216C323.061 216 307.364 222.502 295.79 234.076C284.216 245.649 277.714 261.347 277.714 277.714ZM370.286 277.714C370.286 283.817 368.476 289.783 365.085 294.858C361.695 299.932 356.876 303.887 351.237 306.223C345.599 308.558 339.394 309.169 333.409 307.979C327.423 306.788 321.925 303.849 317.609 299.534C313.294 295.218 310.355 289.72 309.164 283.734C307.974 277.749 308.585 271.544 310.92 265.906C313.256 260.267 317.211 255.448 322.285 252.058C327.36 248.667 333.326 246.857 339.429 246.857C347.612 246.857 355.461 250.108 361.248 255.895C367.035 261.682 370.286 269.53 370.286 277.714Z" fill="#3C4652"/>
</svg>
