<svg width="395" height="373" viewBox="0 0 395 373" fill="none" xmlns="http://www.w3.org/2000/svg">
<path d="M326.047 8.01024C334.499 2.34876 344.653 -0.204818 354.777 0.785179C364.902 1.77518 374.369 6.24741 381.564 13.4389C388.759 20.6303 393.235 30.0954 394.23 40.2193C395.225 50.3432 392.676 60.4986 387.018 68.9529L332.488 150.706C307.524 188.153 272.08 217.415 230.583 234.835C224.887 218.563 215.599 203.782 203.408 191.592C191.218 179.401 176.437 170.113 160.165 164.417C177.593 122.916 206.865 87.4714 244.323 62.5122L326.047 8.01024ZM122.438 201C103.458 201 85.2558 208.54 71.8352 221.96C58.4146 235.381 50.875 253.583 50.875 272.562C50.8786 274.941 50.2894 277.282 49.1607 279.376C48.0321 281.469 46.3996 283.248 44.4107 284.553C42.4218 285.857 40.1394 286.645 37.7695 286.845C35.3997 287.046 33.0173 286.653 30.8375 285.701C26.8504 283.95 22.425 283.453 18.1487 284.276C13.8724 285.099 9.94744 287.203 6.8947 290.308C3.84195 293.414 1.80579 297.374 1.05645 301.664C0.307114 305.954 0.880027 310.37 2.69915 314.326C12.2125 335.131 28.5592 352.053 49.0221 362.28C69.485 372.508 92.8318 375.424 115.182 370.545C137.532 365.665 157.539 353.284 171.877 335.459C186.216 317.634 194.023 295.439 194 272.562C194 253.583 186.46 235.381 173.04 221.96C159.619 208.54 141.417 201 122.438 201Z" fill="#3C4652"/>
</svg>
